<svg xmlns="http://www.w3.org/2000/svg" xmlns:xlink="http://www.w3.org/1999/xlink" width="500" zoomAndPan="magnify" viewBox="0 0 375 374.999991" height="500" preserveAspectRatio="xMidYMid meet" version="1.0"><defs><g/></defs><rect x="-37.5" width="450" fill="#ffffff" y="-37.499999" height="449.999989" fill-opacity="1"/><rect x="-37.5" width="450" fill="#fffbfb" y="-37.499999" height="449.999989" fill-opacity="1"/><g fill="#000000" fill-opacity="1"><g transform="translate(21.215771, 204.562487)"><g><path d="M 31.820312 0.742188 C 40.128906 0.742188 47.175781 -1.335938 50.660156 -3.265625 L 51.847656 -12.90625 L 51.03125 -12.980469 C 48.140625 -4.96875 41.910156 -0.742188 33.898438 -0.742188 C 18.46875 -0.742188 10.011719 -14.09375 10.085938 -28.039062 C 10.085938 -43.167969 19.210938 -51.03125 31.003906 -51.03125 C 39.832031 -51.03125 46.878906 -46.507812 49.769531 -39.757812 L 50.511719 -39.90625 L 50.214844 -48.734375 C 47.324219 -50.585938 39.90625 -52.441406 33.527344 -52.441406 C 16.097656 -52.441406 3.855469 -40.722656 3.855469 -24.921875 C 3.855469 -8.753906 14.761719 0.742188 31.820312 0.742188 Z M 31.820312 0.742188 "/></g></g></g><g fill="#000000" fill-opacity="1"><g transform="translate(68.682256, 204.562487)"><g><path d="M 2.003906 0 L 13.722656 0 L 13.722656 -0.964844 C 11.421875 -1.632812 10.753906 -3.335938 10.753906 -9.421875 L 10.753906 -29.597656 C 14.539062 -32.710938 18.542969 -35.160156 22.625 -35.160156 C 29.152344 -35.160156 32.414062 -30.929688 32.414062 -23.214844 L 32.414062 -9.421875 C 32.414062 -3.335938 31.746094 -1.632812 29.449219 -0.964844 L 29.449219 0 L 41.167969 0 L 41.167969 -0.964844 C 38.867188 -1.632812 38.199219 -3.335938 38.199219 -9.421875 L 38.199219 -24.699219 C 38.199219 -33.378906 33.75 -37.605469 26.480469 -37.605469 C 20.769531 -37.605469 15.058594 -34.269531 10.753906 -30.78125 L 10.753906 -59.414062 L 10.085938 -59.933594 L 2.003906 -56.371094 L 2.003906 -55.558594 C 4.003906 -54.667969 4.96875 -53.925781 4.96875 -48.734375 L 4.96875 -9.421875 C 4.96875 -3.335938 4.300781 -1.632812 2.003906 -0.964844 Z M 2.003906 0 "/></g></g></g><g fill="#000000" fill-opacity="1"><g transform="translate(104.133544, 204.562487)"><g><path d="M 2.375 0 L 14.09375 0 L 14.09375 -0.964844 C 11.792969 -1.632812 11.125 -3.335938 11.125 -9.421875 L 11.125 -24.179688 L 11.199219 -24.179688 C 11.421875 -27.742188 14.09375 -31.894531 16.246094 -33.453125 C 20.621094 -32.191406 23.511719 -31.375 25.515625 -31.375 C 28.1875 -31.375 29.816406 -33.972656 29.816406 -35.605469 C 29.816406 -36.863281 27.964844 -37.605469 24.996094 -37.605469 C 21.4375 -37.605469 18.839844 -36.640625 16.542969 -34.9375 C 14.316406 -33.304688 12.3125 -30.78125 11.125 -27.890625 L 11.125 -37.160156 L 10.457031 -37.679688 L 2.375 -34.121094 L 2.375 -33.304688 C 4.375 -32.414062 5.339844 -31.671875 5.339844 -26.480469 L 5.339844 -9.421875 C 5.339844 -3.335938 4.671875 -1.632812 2.375 -0.964844 Z M 2.375 0 "/></g></g></g><g fill="#000000" fill-opacity="1"><g transform="translate(127.792132, 204.562487)"><g><path d="M 22.105469 0.742188 C 30.855469 0.742188 41.464844 -6.082031 41.464844 -18.765625 C 41.464844 -31.96875 31.300781 -37.605469 22.105469 -37.605469 C 11.941406 -37.605469 2.671875 -29.597656 2.671875 -18.023438 C 2.671875 -5.117188 12.683594 0.742188 22.105469 0.742188 Z M 8.382812 -22.253906 C 8.382812 -29.671875 11.792969 -35.902344 19.359375 -36.199219 C 29.078125 -36.714844 35.828125 -23.957031 35.828125 -14.390625 C 35.828125 -7.195312 32.265625 -0.816406 24.328125 -0.816406 C 14.464844 -0.816406 8.382812 -12.832031 8.382812 -22.253906 Z M 8.382812 -22.253906 "/></g></g></g><g fill="#000000" fill-opacity="1"><g transform="translate(164.949276, 204.562487)"><g><path d="M 2.375 0 L 14.09375 0 L 14.09375 -0.964844 C 11.867188 -1.632812 11.125 -3.335938 11.125 -9.421875 L 11.125 -29.597656 C 14.910156 -32.710938 18.914062 -35.160156 22.996094 -35.160156 C 29.523438 -35.160156 32.785156 -30.929688 32.785156 -23.214844 L 32.785156 -9.421875 C 32.785156 -3.335938 32.117188 -1.632812 29.816406 -0.964844 L 29.816406 0 L 41.539062 0 L 41.539062 -0.964844 C 39.238281 -1.632812 38.570312 -3.335938 38.570312 -9.421875 L 38.570312 -24.699219 C 38.570312 -33.378906 34.121094 -37.605469 26.851562 -37.605469 C 21.140625 -37.605469 15.429688 -34.269531 11.125 -30.78125 L 11.125 -37.160156 L 10.53125 -37.679688 L 2.375 -34.121094 L 2.375 -33.304688 C 4.449219 -32.414062 5.339844 -31.671875 5.339844 -26.480469 L 5.339844 -9.421875 C 5.339844 -3.335938 4.671875 -1.632812 2.375 -0.964844 Z M 2.375 0 "/></g></g></g><g fill="#000000" fill-opacity="1"><g transform="translate(200.771398, 204.562487)"><g><path d="M 2.375 0 L 14.09375 0 L 14.09375 -0.964844 C 11.867188 -1.632812 11.125 -3.335938 11.125 -9.421875 L 11.125 -37.160156 L 10.53125 -37.679688 L 2.375 -34.121094 L 2.375 -33.304688 C 4.449219 -32.414062 5.339844 -31.671875 5.339844 -26.480469 L 5.339844 -9.421875 C 5.339844 -3.335938 4.671875 -1.632812 2.375 -0.964844 Z M 3.707031 -46.285156 C 3.707031 -44.058594 5.488281 -42.207031 7.789062 -42.207031 C 10.085938 -42.207031 11.867188 -44.058594 11.867188 -46.285156 C 11.867188 -48.660156 10.160156 -50.4375 7.789062 -50.4375 C 5.488281 -50.4375 3.707031 -48.660156 3.707031 -46.285156 Z M 3.707031 -46.285156 "/></g></g></g><g fill="#000000" fill-opacity="1"><g transform="translate(209.96724, 204.562487)"><g><path d="M 20.25 0.742188 C 28.1875 0.742188 33.972656 -4.523438 37.753906 -9.71875 L 37.085938 -10.382812 C 33.675781 -6.527344 29.597656 -3.929688 23.882812 -3.929688 C 14.242188 -3.929688 7.9375 -10.902344 7.9375 -21.066406 C 7.9375 -29.078125 12.609375 -35.234375 19.507812 -36.421875 C 25.441406 -31.746094 28.929688 -29.597656 30.78125 -29.597656 C 33.15625 -29.597656 35.457031 -31.894531 35.457031 -33.601562 C 35.457031 -35.605469 29.964844 -37.605469 22.847656 -37.605469 C 12.015625 -37.605469 2.671875 -29.152344 2.671875 -17.429688 C 2.671875 -5.488281 11.644531 0.742188 20.25 0.742188 Z M 20.25 0.742188 "/></g></g></g><g fill="#000000" fill-opacity="1"><g transform="translate(241.704038, 204.562487)"><g><path d="M -1.78125 20.25 L 31.449219 -59.117188 L 30.558594 -59.5625 L -2.671875 19.804688 Z M -1.78125 20.25 "/></g></g></g><g fill="#000000" fill-opacity="1"><g transform="translate(262.985287, 204.562487)"><g><path d="M 30.410156 0 L 37.828125 0 L 37.828125 -1.039062 C 35.382812 -1.855469 34.863281 -4.078125 34.863281 -9.421875 L 34.863281 -23.734375 C 34.863281 -32.785156 30.632812 -37.605469 21.660156 -37.605469 C 14.910156 -37.605469 9.199219 -34.195312 5.042969 -29.078125 L 5.785156 -28.410156 C 9.570312 -32.933594 13.648438 -34.714844 17.800781 -34.714844 C 23.289062 -34.714844 27.296875 -31.894531 27.445312 -24.550781 L 19.210938 -22.179688 C 10.011719 -19.582031 2.226562 -16.613281 2.226562 -8.976562 C 2.226562 -2.746094 6.824219 0.742188 12.3125 0.742188 C 20.027344 0.742188 25.367188 -6.601562 27.445312 -15.207031 L 27.445312 -2.96875 C 27.445312 -1.039062 28.484375 0 30.410156 0 Z M 9.125 -11.570312 C 9.125 -17.726562 16.023438 -20.25 19.507812 -21.214844 L 27.445312 -23.511719 L 27.445312 -21.585938 C 27.371094 -14.910156 23.289062 -4.671875 16.023438 -4.671875 C 12.609375 -4.671875 9.125 -6.675781 9.125 -11.570312 Z M 9.125 -11.570312 "/></g></g></g><g fill="#000000" fill-opacity="1"><g transform="translate(294.802343, 204.562487)"><g><path d="M 2.226562 0 L 15.726562 0 L 15.726562 -1.039062 C 13.277344 -1.855469 12.757812 -4.078125 12.757812 -9.421875 L 12.757812 -59.414062 L 12.015625 -60.007812 L 2.226562 -55.707031 L 2.226562 -54.667969 C 4.078125 -53.851562 5.191406 -53.109375 5.191406 -48.734375 L 5.191406 -9.421875 C 5.191406 -4.078125 4.671875 -1.855469 2.226562 -1.039062 Z M 2.226562 0 "/></g></g></g><g fill="#000000" fill-opacity="1"><g transform="translate(305.555715, 204.562487)"><g><path d="M 2.226562 0 L 15.726562 0 L 15.726562 -1.039062 C 13.277344 -1.855469 12.757812 -4.078125 12.757812 -9.421875 L 12.757812 -59.414062 L 12.015625 -60.007812 L 2.226562 -55.707031 L 2.226562 -54.667969 C 4.078125 -53.851562 5.191406 -53.109375 5.191406 -48.734375 L 5.191406 -9.421875 C 5.191406 -4.078125 4.671875 -1.855469 2.226562 -1.039062 Z M 2.226562 0 "/></g></g></g><g fill="#000000" fill-opacity="1"><g transform="translate(316.309086, 204.562487)"><g><path d="M 2.671875 14.316406 C 9.496094 14.167969 14.6875 10.753906 20.324219 -2.226562 L 31.671875 -28.484375 C 33.824219 -33.378906 35.902344 -35.234375 38.125 -36.050781 L 38.125 -37.085938 L 29.671875 -37.085938 L 29.671875 -36.050781 C 32.191406 -35.457031 32.5625 -33.378906 30.484375 -28.410156 L 22.179688 -9.199219 L 13.722656 -28.484375 C 11.570312 -33.378906 10.457031 -35.234375 12.90625 -36.050781 L 12.90625 -37.085938 L -0.222656 -37.085938 L -0.222656 -36.050781 C 1.484375 -35.234375 3.484375 -33.378906 5.5625 -28.410156 L 18.023438 0.371094 C 16.394531 3.78125 14.613281 6.675781 12.832031 8.605469 C 8.976562 7.9375 4.894531 7.269531 2.746094 7.269531 C -0.742188 7.269531 -2.746094 10.53125 -2.746094 11.941406 C -2.746094 13.425781 -0.371094 14.390625 2.671875 14.316406 Z M 2.671875 14.316406 "/></g></g></g></svg>